<svg xmlns="http://www.w3.org/2000/svg" viewBox="0 0 512 512">
  <rect width="512" height="512" rx="104" fill="#0A66C2"/>
  <path d="M122 148h84c42 0 68 24 68 60 0 25-13 44-34 54 24 8 42 30 42 60 0 40-31 66-77 66h-83V148Z" fill="#fff"/>
  <path d="M162 188v54h38c20 0 33-10 33-27 0-17-13-27-33-27h-38Zm0 92v68h44c22 0 36-13 36-34s-14-34-36-34h-44Z" fill="#0A66C2"/>
  <path d="M314 168c34 0 62 22 72 52" fill="none" stroke="#fff" stroke-width="22" stroke-linecap="round"/>
  <path d="M386 220h-54" fill="none" stroke="#fff" stroke-width="22" stroke-linecap="round"/>
  <path d="M386 220v-54" fill="none" stroke="#fff" stroke-width="22" stroke-linecap="round"/>
  <circle cx="358" cy="314" r="50" fill="#fff"/>
  <circle cx="340" cy="302" r="9" fill="#0A66C2"/>
  <circle cx="376" cy="302" r="9" fill="#0A66C2"/>
  <path d="M334 332c17 16 38 16 55 0" fill="none" stroke="#0A66C2" stroke-width="14" stroke-linecap="round"/>
</svg>
